<svg width="23" height="22" viewBox="0 0 23 22" fill="none" xmlns="http://www.w3.org/2000/svg">
<g clip-path="url(#clip0_24_595)">
<path d="M22.25 11C22.25 16.6298 17.4688 21.25 11.5 21.25C5.53117 21.25 0.75 16.6298 0.75 11C0.75 5.37015 5.53117 0.75 11.5 0.75C17.4688 0.75 22.25 5.37015 22.25 11Z" stroke="#EA4F4F" stroke-width="1.5"/>
<path d="M7.81484 17C7.51836 17 7.26455 16.8939 7.05342 16.6818C6.84229 16.4696 6.73672 16.2146 6.73672 15.9167V5.625H6V4.54167H9.37813V4H14.1219V4.54167H17.5V5.625H16.7633V15.9167C16.7633 16.2056 16.6555 16.4583 16.4398 16.675C16.2242 16.8917 15.9727 17 15.6852 17H7.81484ZM15.6852 5.625H7.81484V15.9167H15.6852V5.625ZM9.71953 14.3639H10.7977V7.15972H9.71953V14.3639ZM12.7023 14.3639H13.7805V7.15972H12.7023V14.3639Z" fill="#EA4F4F"/>
</g>
<defs>
<clipPath id="clip0_24_595">
<rect width="23" height="22" fill="white"/>
</clipPath>
</defs>
</svg>
